PathFileType	4	(X/Y/Z) shrug_2kg_3.trc																										
DataRate	CameraRate	NumFrames	NumMarkers	Units	OrigDataRate	OrigDataStartFrame	OrigNumFrames																					
100	100	24	9	mm	100	209	556																					
Frame#	Time	gu			centelbow			EpL			centpxt8			centijc7			ij			ts			aa			ai		
		X1	Y1	Z1	X2	Y2	Z2	X3	Y3	Z3	X4	Y4	Z4	X5	Y5	Z5	X6	Y6	Z6	X7	Y7	Z7	X8	Y8	Z8	X9	Y9	Z9  
208	2.08	-109.634	32.885	142.926	-106.591	-209.027	192.457	-100.837	-198.735	222.463	-46.816	-153.158	-8.669	-46.816	31.938	-8.669	0	0	0	-121.107	37.449	10.069	-142.526	62.451	124.703	-127.426	-72.329	38.253
209	2.09	-109.699	32.949	143.196	-106.516	-208.987	192.607	-100.746	-198.706	222.614	-46.816	-153.158	-8.669	-46.816	31.938	-8.669	0	0	0	-121.244	37.512	10.451	-142.736	62.373	125.102	-127.572	-72.301	38.498
210	2.1	-109.618	32.974	143.156	-106.27	-208.981	192.46	-100.464	-198.711	222.464	-46.816	-153.158	-8.669	-46.816	31.938	-8.669	0	0	0	-121.323	37.477	10.485	-142.829	62.218	125.16	-127.654	-72.366	38.417
211	2.11	-109.387	32.966	142.945	-105.88	-209.004	192.16	-100.027	-198.743	222.158	-46.816	-153.158	-8.669	-46.816	31.938	-8.669	0	0	0	-121.37	37.413	10.135	-142.84	62.07	124.834	-127.695	-72.45	37.987
212	2.12	-109.163	32.917	142.96	-105.537	-209.073	192.074	-99.653	-198.822	222.07	-46.816	-153.158	-8.669	-46.816	31.938	-8.669	0	0	0	-121.452	37.459	9.714	-142.917	62.037	124.431	-127.756	-72.423	37.496
213	2.13	-109.116	32.864	143.299	-105.416	-209.152	192.279	-99.527	-198.916	222.278	-46.816	-153.158	-8.669	-46.816	31.938	-8.669	0	0	0	-121.492	37.598	9.466	-143.025	62.072	124.192	-127.761	-72.31	37.154
214	2.14	-109.192	32.935	143.619	-105.419	-209.103	192.485	-99.536	-198.879	222.49	-46.816	-153.158	-8.669	-46.816	31.938	-8.669	0	0	0	-121.338	37.703	9.393	-142.984	62.052	124.125	-127.571	-72.235	36.966
215	2.15	-109.193	33.099	143.63	-105.329	-208.947	192.447	-99.444	-198.727	222.452	-46.816	-153.158	-8.669	-46.816	31.938	-8.669	0	0	0	-121.016	37.751	9.423	-142.771	61.986	124.158	-127.235	-72.215	36.888
216	2.16	-109.072	33.147	143.461	-105.135	-208.904	192.246	-99.235	-198.687	222.25	-46.816	-153.158	-8.669	-46.816	31.938	-8.669	0	0	0	-120.744	37.747	9.479	-142.562	61.903	124.219	-126.974	-72.238	36.867
217	2.17	-108.921	33.006	143.434	-104.94	-209.059	192.148	-99.027	-198.85	222.152	-46.816	-153.158	-8.669	-46.816	31.938	-8.669	0	0	0	-120.645	37.603	9.498	-142.459	61.707	124.25	-126.894	-72.395	36.833
218	2.18	-108.788	32.776	143.639	-104.789	-209.308	192.257	-98.873	-199.11	222.264	-46.816	-153.158	-8.669	-46.816	31.938	-8.669	0	0	0	-120.617	37.301	9.485	-142.383	61.358	124.256	-126.878	-72.707	36.773
219	2.19	-108.681	32.547	143.829	-104.694	-209.552	192.372	-98.776	-199.364	222.382	-46.816	-153.158	-8.669	-46.816	31.938	-8.669	0	0	0	-120.539	36.995	9.451	-142.254	61.004	124.242	-126.816	-73.025	36.69
220	2.2	-108.606	32.377	143.683	-104.625	-209.73	192.183	-98.691	-199.548	222.192	-46.816	-153.158	-8.669	-46.816	31.938	-8.669	0	0	0	-120.405	36.826	9.363	-142.064	60.794	124.172	-126.702	-73.202	36.559
221	2.21	-108.605	32.317	143.275	-104.552	-209.797	191.738	-98.59	-199.619	221.743	-46.816	-153.158	-8.669	-46.816	31.938	-8.669	0	0	0	-120.253	36.809	9.276	-141.852	60.744	124.104	-126.558	-73.228	36.441
222	2.22	-108.756	32.349	143.061	-104.554	-209.776	191.458	-98.576	-199.602	221.461	-46.816	-153.158	-8.669	-46.816	31.938	-8.669	0	0	0	-120.171	36.883	9.321	-141.728	60.784	124.163	-126.454	-73.162	36.456
223	2.23	-109.045	32.357	143.256	-104.712	-209.784	191.561	-98.741	-199.619	221.568	-46.816	-153.158	-8.669	-46.816	31.938	-8.669	0	0	0	-120.238	36.961	9.501	-141.785	60.817	124.355	-126.492	-73.094	36.6
224	2.24	-109.309	32.16	143.599	-104.954	-209.993	191.839	-98.992	-199.835	221.851	-46.816	-153.158	-8.669	-46.816	31.938	-8.669	0	0	0	-120.415	36.973	9.656	-141.955	60.783	124.521	-126.654	-73.093	36.713
225	2.25	-109.4	31.697	143.796	-105.112	-210.46	192.025	-99.15	-200.304	222.037	-46.816	-153.158	-8.669	-46.816	31.938	-8.669	0	0	0	-120.572	36.933	9.638	-142.082	60.71	124.515	-126.806	-73.141	36.664
226	2.26	-109.347	31.197	143.811	-105.113	-210.961	192.04	-99.14	-200.807	222.051	-46.816	-153.158	-8.669	-46.816	31.938	-8.669	0	0	0	-120.658	36.929	9.447	-142.124	60.686	124.337	-126.881	-73.15	36.457
227	2.27	-109.31	30.957	143.663	-105.037	-211.203	191.876	-99.052	-201.05	221.885	-46.816	-153.158	-8.669	-46.816	31.938	-8.669	0	0	0	-120.748	37.034	9.177	-142.176	60.773	124.077	-126.945	-73.049	36.174
228	2.28	-109.339	30.947	143.394	-104.96	-211.217	191.579	-98.963	-201.066	221.585	-46.816	-153.158	-8.669	-46.816	31.938	-8.669	0	0	0	-120.838	37.183	8.926	-142.244	60.896	123.836	-127.013	-72.906	35.904
229	2.29	-109.29	30.92	143.253	-104.823	-211.249	191.403	-98.816	-201.1	221.409	-46.816	-153.158	-8.669	-46.816	31.938	-8.669	0	0	0	-120.789	37.226	8.75	-142.181	60.906	123.669	-126.972	-72.871	35.694
230	2.3	-109.086	30.797	143.474	-104.574	-211.378	191.588	-98.57	-201.233	221.595	-46.816	-153.158	-8.669	-46.816	31.938	-8.669	0	0	0	-120.563	37.143	8.661	-141.955	60.774	123.59	-126.802	-72.965	35.548
231	2.31	-108.873	30.698	143.947	-104.318	-211.482	192.034	-98.331	-201.339	222.045	-46.816	-153.158	-8.669	-46.816	31.938	-8.669	0	0	0	-120.343	37.042	8.697	-141.767	60.594	123.636	-126.681	-73.083	35.489
